<svg width="22" height="16" viewBox="0 0 22 16" fill="none" xmlns="http://www.w3.org/2000/svg">
<path fill-rule="evenodd" clip-rule="evenodd" d="M14.3907 0.128955C14.5956 -0.0561392 14.9118 -0.0400625 15.0969 0.164864L21.8711 7.66486C22.043 7.85522 22.043 8.1448 21.8711 8.33515L15.0969 15.8351C14.9118 16.0401 14.5956 16.0562 14.3907 15.8711C14.1857 15.686 14.1697 15.3698 14.3548 15.1649L20.3746 8.50001L0.499999 8.5C0.223856 8.5 -1.44705e-06 8.27615 -1.39877e-06 8C-1.35048e-06 7.72386 0.223856 7.5 0.499999 7.5L20.3746 7.50001L14.3548 0.83515C14.1697 0.630224 14.1857 0.31405 14.3907 0.128955Z" fill="#454545"/>
</svg>
