<svg width="10" height="10" viewBox="0 0 10 10" fill="none" xmlns="http://www.w3.org/2000/svg">
<path d="M5.00002 2.50002C6.38002 2.50002 7.50003 3.62003 7.50003 5.00003C7.50003 6.38003 6.38002 7.50002 5.00002 7.50002C3.62001 7.50002 2.50001 6.38001 2.50001 5.00001C2.50001 3.62 3.62001 2.50002 5.00002 2.50002Z" fill="#1C47B7"/>
<path d="M5.00001 0C7.76249 0 10 2.23751 10 5C10 7.76249 7.76249 10 5.00001 10C2.23753 10 0 7.76251 0 5C0 2.23749 2.23751 0 5.00001 0ZM5.00001 9.00001C7.21 9.00001 9.00002 7.21002 9.00002 5C9.00002 2.78998 7.21 1.00001 5.00001 1.00001C2.79002 1.00001 1.00001 2.79 1.00001 5C1.00001 7.21 2.79 9.00001 5.00001 9.00001Z" fill="#1C47B7"/>
</svg>
