<svg width="78" height="49" viewBox="0 0 78 49" fill="none" xmlns="http://www.w3.org/2000/svg">
<path d="M6.54501 26.092C6.4574 26.1124 6.36979 26.1223 6.28356 26.1223C5.76476 26.1223 5.29518 25.7661 5.17192 25.2383L5.17183 25.2379C4.98455 24.4362 4.59506 22.7691 5.56486 21.499C6.23054 20.6274 7.37707 20.1571 8.97307 20.1009C11.1941 20.023 11.6907 19.2734 12.5923 17.9125L12.5925 17.9123L12.5929 17.9117C13.1742 17.0343 13.8976 15.9425 15.2099 14.9238C15.7988 14.4667 17.5913 13.0761 19.1787 13.9208C20.8283 14.7989 20.8562 17.3881 20.7337 19.2593C20.6746 20.1612 20.8495 20.4591 20.9273 20.5453C21.1333 20.7733 21.813 20.7967 22.4127 20.8171L22.4133 20.8172C22.9776 20.8365 23.5611 20.8566 24.132 21.0158C24.6901 21.1715 25.2293 21.1173 25.8004 21.0599L25.8005 21.0599L25.8015 21.0598C26.6461 20.9752 27.686 20.8709 28.5302 21.6693C28.8254 21.3971 29.2876 20.8328 29.6754 20.3593L29.6775 20.3567C29.7802 20.2313 29.8869 20.1011 29.9978 19.9666C31.4043 18.261 33.0356 19.2543 33.8199 19.7318L33.82 19.7319C34.6129 20.2148 34.9819 20.3917 35.4443 20.1931C36.6867 19.6598 36.8529 19.4295 37.5521 18.4607L37.5524 18.4602C37.8841 18.0004 38.297 17.4283 38.9376 16.6632C40.5046 14.7916 43.0798 13.9501 44.7994 14.7475C46.0409 15.3232 46.6195 16.621 46.347 18.2194C46.2996 18.4971 46.3045 18.6612 46.315 18.7461C46.7311 18.8114 47.8267 18.475 48.257 18.3427C48.6796 18.2127 49.045 18.1005 49.3616 18.0529C49.9031 17.9719 50.4152 18.0984 50.9105 18.2208C51.982 18.4859 52.3054 18.5658 52.7628 17.2564C53.9917 13.7397 55.7459 13.4816 57.6028 13.2085L57.6031 13.2084C57.7719 13.1837 57.9468 13.1581 58.1281 13.1289C60.4121 12.763 60.7519 11.5697 61.2664 9.76347L61.2665 9.76311L61.267 9.7614C61.4387 9.15866 61.6163 8.53538 61.884 7.91667C62.5013 6.49007 63.5692 5.80409 64.5114 5.19883C65.426 4.61143 66.0865 4.18687 66.3818 3.18178C66.8863 1.46369 68.3791 0.309959 69.5931 0.0586093C70.4633 -0.121471 71.2474 0.117822 71.7441 0.715902C72.4152 1.52397 72.4172 2.76607 71.7494 4.40755C71.1703 5.83156 71.0848 6.43986 71.0813 6.66557C71.1436 6.68846 71.2189 6.71349 71.281 6.73409L71.2814 6.73422C71.5687 6.82958 71.9264 6.94832 72.2822 7.19498C72.4303 7.29784 72.5709 7.42389 72.7009 7.57024C73.1205 8.04242 73.0785 8.76595 72.607 9.18608C72.1353 9.60637 71.413 9.56425 70.9937 9.09192C70.9809 9.07773 70.9739 9.07163 70.9739 9.07163C70.8957 9.01774 70.7344 8.96415 70.5635 8.90739L70.5622 8.90696C70.1177 8.75954 69.374 8.51262 69.0024 7.70531C68.5967 6.82368 68.7734 5.65697 69.6331 3.54377C69.8775 2.9431 69.9514 2.54509 69.9629 2.32182C69.5674 2.45093 68.8315 2.95256 68.5745 3.82763C68.0388 5.65226 66.7674 6.46906 65.7457 7.12539L65.7452 7.12569L65.7451 7.12575C64.9497 7.63666 64.3212 8.04032 63.9812 8.82669C63.7728 9.30804 63.623 9.83379 63.4645 10.3905L63.4643 10.3909C62.9058 12.3521 62.2106 14.7927 58.4892 15.3891C58.2999 15.4194 58.1173 15.4463 57.9409 15.4723L57.9352 15.4732C56.2573 15.7199 55.6922 15.8031 54.9201 18.0125C53.7762 21.2866 51.4709 20.7172 50.3631 20.4431C50.142 20.3884 49.8088 20.3071 49.6979 20.317C49.5529 20.3388 49.2214 20.4408 48.9287 20.5308L48.928 20.531C47.6475 20.9249 45.894 21.4642 44.7692 20.4742C44.1202 19.9028 43.893 19.0145 44.0943 17.8342C44.2351 17.0084 43.9373 16.8705 43.8395 16.8251C43.2214 16.5389 41.7237 16.8983 40.6887 18.1344C40.1016 18.8351 39.7158 19.3699 39.4058 19.7995L39.4045 19.8012C38.5473 20.9893 38.0947 21.5462 36.3445 22.2973C34.7544 22.9797 33.4777 22.2025 32.6329 21.6882L32.6326 21.6881C32.3954 21.5436 32.0449 21.3302 31.8871 21.2948C31.8627 21.3137 31.8195 21.3522 31.7596 21.4248C31.6505 21.5573 31.5455 21.6853 31.4443 21.8088L31.4441 21.8091C30.3382 23.1594 29.6077 24.0514 28.5295 24.0812C27.9575 24.094 27.4363 23.8519 26.9798 23.3532C26.8872 23.2517 26.4506 23.2955 26.0284 23.3379C25.3434 23.4068 24.4906 23.4924 23.5187 23.2214C23.2103 23.1353 22.7849 23.1206 22.3345 23.1052L22.334 23.1052C21.3332 23.0709 20.0878 23.0281 19.2327 22.0817C18.6215 21.4051 18.3664 20.4329 18.4531 19.1097C18.6181 16.5872 18.1714 16.0137 18.1083 15.9466C18.0388 15.9426 17.6101 15.9571 16.6098 16.7334C15.594 17.5219 15.0362 18.3639 14.4967 19.1782L14.4967 19.1783C13.4899 20.6981 12.4486 22.2697 9.05321 22.389C8.19815 22.4191 7.60394 22.5969 7.38027 22.8899C7.0664 23.301 7.28976 24.2571 7.39718 24.7166C7.54101 25.3321 7.15949 25.9479 6.54501 26.092Z" fill="white"/>
<path d="M74.7991 17.8572C75.1019 18.2027 75.4149 18.56 75.7341 18.9559C77.0181 20.5482 78.7284 24.5247 77.6688 26.2432C77.2657 26.8976 76.5487 27.185 75.7511 27.0108C71.1343 26.0057 69.8218 23.587 69.5337 21.7349L69.4693 21.314C69.35 20.5285 69.1722 19.358 68.9441 19.0484C68.7136 19.024 68.2077 19.1106 67.88 19.3918C67.692 19.5531 67.6214 19.7283 67.644 19.9775C67.6684 20.2435 67.7069 20.5462 67.748 20.8669C67.985 22.7184 68.3092 25.2538 66.4906 26.5002C65.7556 27.0038 65.6398 27.8537 65.4664 29.5751L65.4646 29.5925C65.4228 30.0066 65.3796 30.4348 65.3185 30.8943C65.3156 30.9152 65.3133 30.9349 65.3113 30.9535C65.6847 30.898 66.2745 30.7026 66.5951 30.5964L66.6014 30.5943C66.8971 30.4965 67.1764 30.4041 67.4354 30.3393C69.822 29.7422 71.104 32.3085 71.8695 33.8423C72.0574 34.2187 72.2721 34.5512 72.4993 34.903L72.5008 34.9054C73.4508 36.3753 74.433 37.8955 73.5323 42.1286C72.9724 44.7602 71.8571 45.6046 71.0199 45.8494C70.2123 46.0854 69.3584 45.8474 68.7337 45.2128C67.9772 44.4441 67.7016 43.2542 68.0311 42.1814C68.3782 41.0511 68.3218 40.4759 68.2516 40.2873C67.8101 40.5919 67.0973 40.922 65.3971 41.2127C62.7743 41.661 61.7905 41.0478 60.5879 40.0607C60.2388 39.7741 59.878 39.478 59.3828 39.1919C59.2968 39.1421 59.2294 39.1101 59.1791 39.0895C58.8125 39.755 58.667 42.1843 58.5866 43.5283C58.5165 44.6993 58.1333 45.5747 57.4478 46.1297C56.3004 47.0588 54.7321 46.8198 53.215 46.5886C52.2678 46.4441 51.2887 46.2948 50.5688 46.4595C48.3609 46.9646 46.7625 46.3884 45.7048 46.0069L45.7011 46.0055C45.6306 45.9801 45.5533 45.9522 45.4756 45.9249C45.308 46.4973 45.0113 47.3314 44.1665 47.7695C43.485 48.1229 42.6546 48.119 41.628 47.7579C40.3546 47.3097 39.8127 47.6501 38.9926 48.1655L38.9926 48.1655L38.9922 48.1658C38.4005 48.5375 37.6642 49 36.6775 49C35.4641 49 31.4198 48.6842 30.3236 44.6215C30.0889 43.752 29.6941 43.6795 28.7445 43.5868C28.0259 43.5166 26.5309 43.3704 26.371 41.7678C26.346 41.5172 26.3356 41.4136 25.895 41.272C25.218 41.0543 23.9648 40.9808 22.5174 40.9133C22.0317 40.8907 21.7571 40.9164 21.6134 40.9416L21.6122 40.9484L21.6122 40.9487C21.5151 41.4782 21.3132 42.5796 19.6344 42.9998C16.8277 43.7024 14.3096 41.0343 13.803 39.4663C13.7251 39.225 12.9846 38.9523 11.3294 39.2483C11.1243 39.285 11.0266 39.4809 10.9526 40.5999L10.9526 40.5999C10.8998 41.397 10.8401 42.3003 10.1748 42.867C9.93159 43.0743 9.51579 43.3079 8.90314 43.2705C8.69449 43.469 8.40086 44.1744 8.23817 44.5652L8.23761 44.5665L8.23752 44.5668C7.82248 45.5648 7.19533 47.073 5.73185 46.7798C4.55736 46.5444 4.28063 45.4465 4.09749 44.7199L4.09745 44.7197L4.09741 44.7196C3.8669 43.8049 3.62854 42.8591 2.26849 42.1063C-0.475877 40.587 -0.0483466 38.4104 0.148049 37.7795C0.471059 36.7422 1.39286 35.698 2.46473 35.805C3.14899 35.8732 4.66363 35.6933 4.98542 35.2051C5.10671 35.0209 5.00752 34.5988 4.72001 34.0759C4.01381 32.7917 3.76591 31.4104 3.98318 29.9704C4.07749 29.3455 4.66013 28.9159 5.28375 29.0097C5.90768 29.1042 6.33719 29.6875 6.24288 30.3125C6.10042 31.2567 6.25705 32.1265 6.72175 32.9715C7.65193 34.663 7.32801 35.8056 6.89255 36.4664C5.85466 38.0412 3.36352 38.1181 2.52126 38.0967C2.4111 38.2294 2.26772 38.4992 2.28266 38.814C2.31054 39.3953 2.8915 39.8356 3.37388 40.1027C5.24307 41.1375 5.85755 42.5481 6.1641 43.5993C6.59819 42.5583 7.24009 41.1038 8.62873 40.9828C8.64797 40.8137 8.66149 40.6097 8.67197 40.4513L8.67215 40.4486C8.74346 39.3698 8.87632 37.3618 10.9276 36.9949C14.612 36.3358 15.6729 37.819 15.9774 38.7615C16.1562 39.3152 17.6386 41.1399 19.0801 40.7792C19.2158 40.7453 19.2937 40.7125 19.3333 40.6923C19.3426 40.6528 19.3529 40.5977 19.3616 40.5505L19.3644 40.5355C19.6304 39.0843 20.5744 38.5314 22.6237 38.6269C25.7266 38.7714 28.2007 38.887 28.6087 41.2694C28.721 41.2848 28.8552 41.2979 28.9666 41.3087L28.9669 41.3088C29.983 41.4083 31.8738 41.5935 32.5298 44.0246C33.184 46.4494 35.6485 46.7112 36.6775 46.7112C36.9916 46.7112 37.2856 46.5361 37.7781 46.2266L37.7784 46.2264C38.6924 45.6523 40.0737 44.7847 42.3857 45.5983C42.8414 45.7589 43.0506 45.7454 43.107 45.7367C43.1818 45.6366 43.2709 45.3228 43.32 45.1501C43.4609 44.6541 43.7909 43.4928 44.9848 43.4928C45.4797 43.4928 45.9429 43.6597 46.4792 43.8532L46.4792 43.8532C47.3818 44.1789 48.5047 44.5841 50.0596 44.228C51.2026 43.9663 52.4544 44.1571 53.5589 44.3257L53.5615 44.3261C54.4917 44.4678 55.6478 44.6439 56.0111 44.3497C56.1716 44.2196 56.2762 43.8793 56.3054 43.3913C56.5131 39.924 56.7119 37.7602 58.1225 36.9998C58.6043 36.7402 59.4118 36.5659 60.5251 37.209C61.1814 37.5881 61.6547 37.9765 62.035 38.2887L62.0365 38.29L62.0371 38.2904C62.8747 38.9779 63.2214 39.2625 65.0125 38.9561C66.6079 38.6833 66.9249 38.4304 67.0441 38.3352L67.0443 38.3351C67.5154 37.9586 67.9431 37.8646 68.622 37.9879C69.2945 38.1102 69.833 38.4761 70.1793 39.0463C70.7109 39.9218 70.7231 41.203 70.2157 42.8544C70.0956 43.2452 70.2934 43.571 70.4022 43.642C70.5451 43.5649 70.9908 43.0932 71.2976 41.6512C72.0012 38.344 71.3753 37.3754 70.5827 36.1488L70.5808 36.1457C70.3413 35.775 70.07 35.3551 69.8258 34.8657C68.9883 33.1882 68.4041 32.4561 67.9901 32.5597C67.8142 32.6038 67.5766 32.6825 67.3242 32.766L67.3133 32.7696C66.1612 33.1514 64.727 33.6262 63.7267 32.796C63.3297 32.4663 62.8907 31.8164 63.0536 30.5917C63.1109 30.1621 63.1526 29.747 63.193 29.3455L63.193 29.3449C63.38 27.4898 63.5565 25.7376 65.2005 24.6109C65.8653 24.1555 65.6345 22.3516 65.4816 21.1579C65.4379 20.8159 65.3966 20.4928 65.3687 20.1849C65.279 19.1967 65.6431 18.2975 66.394 17.6534C67.2486 16.9205 68.5493 16.5852 69.5578 16.8375C71.1629 17.2393 71.4511 19.1358 71.7296 20.9699L71.7928 21.3827C72.0346 22.937 73.3544 24.0349 75.7183 24.6504C75.6299 23.679 74.9614 21.6406 73.9561 20.3941C73.6658 20.034 73.368 19.6942 73.08 19.3655L73.0746 19.3594C71.716 17.8092 70.3111 16.206 71.279 13.8267C71.3353 13.6884 71.3857 13.5376 71.429 13.3781C71.5943 12.768 72.2226 12.4083 72.8312 12.5736C73.4402 12.7393 73.7997 13.3682 73.6344 13.9782C73.5669 14.2273 73.4865 14.4672 73.3952 14.6909C72.9944 15.6766 73.408 16.27 74.7922 17.8493L74.7991 17.8572Z" fill="white"/>
</svg>
