<svg width="319" height="183" viewBox="0 0 319 183" fill="none" xmlns="http://www.w3.org/2000/svg">
<rect opacity="0.9" width="18" height="183" transform="matrix(-1 0 0 1 28 0)" fill="#1C47B7"/>
<rect opacity="0.8" width="7" height="183" transform="matrix(-1 0 0 1 45 0)" fill="#1C47B7"/>
<rect opacity="0.7" width="7" height="183" transform="matrix(-1 0 0 1 62 0)" fill="#1C47B7"/>
<rect opacity="0.6" width="7" height="183" transform="matrix(-1 0 0 1 109 0)" fill="#1C47B7"/>
<rect opacity="0.5" width="22" height="183" transform="matrix(-1 0 0 1 141 0)" fill="#1C47B7"/>
<rect opacity="0.4" width="14" height="183" transform="matrix(-1 0 0 1 169 0)" fill="#1C47B7"/>
<rect opacity="0.3" width="14" height="183" transform="matrix(-1 0 0 1 191 0)" fill="#1C47B7"/>
<rect opacity="0.2" width="24" height="183" transform="matrix(-1 0 0 1 233 0)" fill="#1C47B7"/>
<rect opacity="0.1" width="9" height="183" transform="matrix(-1 0 0 1 260 0)" fill="#1C47B7"/>
<rect opacity="0.05" width="23" height="183" transform="matrix(-1 0 0 1 292 0)" fill="#1C47B7"/>
<rect opacity="0.02" width="7" height="183" transform="matrix(-1 0 0 1 319 0)" fill="#1C47B7"/>
<rect width="10" height="183" fill="white"/>
</svg>
